<svg xmlns="http://www.w3.org/2000/svg" width="17.746" height="19.24" viewBox="0 0 17.746 19.24"><path d="M21.488,19.135a1.877,1.877,0,0,0,.772-1.452,2.03,2.03,0,0,0-.5-1.346c-.028-.055-.051-.106-.074-.157l-.009-.051a.6.6,0,0,1,.092-.462,2.027,2.027,0,0,0,.268-1.188,1.4,1.4,0,0,0-.449-1.073.882.882,0,0,1-.19-.846,1.783,1.783,0,0,0-.379-1.748c-.486-.546-.939-.61-2.145-.541-.832.051-2.566.319-3.708.5-.467.074-.874.139-1,.148-.587.06-.7,0-.758-.227a1.5,1.5,0,0,1,.227-.6,9.916,9.916,0,0,0,.67-1.655,5.808,5.808,0,0,0-.125-4.171,1.511,1.511,0,0,0-1.216-.883,1.839,1.839,0,0,0-1.29.365c-.157.185-.106.536-.287,1.239a13.482,13.482,0,0,1-.555,1.942A13.289,13.289,0,0,1,8.195,9.721c-.19.166-.351.31-.467.421a9.531,9.531,0,0,0-1.179,1.512,8.048,8.048,0,0,1-.633.855,1.67,1.67,0,0,1-1.031.5.371.371,0,0,0-.37.37v7.375a.383.383,0,0,0,.384.384,7.287,7.287,0,0,1,3.07.546,7.991,7.991,0,0,0,2.145.559,44.413,44.413,0,0,0,5.206.375,23.044,23.044,0,0,0,2.617-.18c1.433-.166,2.968-.5,3.477-1.711a1.306,1.306,0,0,0-.023-1.1.364.364,0,0,1-.037-.12A.392.392,0,0,1,21.488,19.135Z" transform="translate(-4.514 -3.382)"/></svg>