<svg xmlns="http://www.w3.org/2000/svg" xmlns:xlink="http://www.w3.org/1999/xlink" viewBox="0 0 679.662 610.166">
  <defs>
    <linearGradient id="linear-gradient" y1="0.5" x2="1" y2="0.5" gradientUnits="objectBoundingBox">
      <stop offset="0" stop-color="#52afe5"/>
      <stop offset="1" stop-color="#52c0df"/>
    </linearGradient>
    <linearGradient id="linear-gradient-3" y1="0.5" x2="1" y2="0.5" gradientUnits="objectBoundingBox">
      <stop offset="0" stop-color="#52afe5"/>
      <stop offset="1" stop-color="#4ecfc8"/>
    </linearGradient>
    <linearGradient id="linear-gradient-4" y1="0.5" x2="1" y2="0.5" gradientUnits="objectBoundingBox">
      <stop offset="0" stop-color="#52afe5"/>
      <stop offset="1" stop-color="#52dfd3"/>
    </linearGradient>
    <linearGradient id="linear-gradient-7" y1="0.5" x2="1" y2="0.5" gradientUnits="objectBoundingBox">
      <stop offset="0" stop-color="#53f5cb"/>
      <stop offset="0.368" stop-color="#52d3d8"/>
      <stop offset="1" stop-color="#4dcec2"/>
    </linearGradient>
    <linearGradient id="linear-gradient-9" y1="0.5" x2="1" y2="0.5" gradientUnits="objectBoundingBox">
      <stop offset="0" stop-color="#393abd"/>
      <stop offset="0.51" stop-color="#4061bd"/>
      <stop offset="1" stop-color="#46a4bc"/>
    </linearGradient>
    <linearGradient id="linear-gradient-16" y1="0.5" x2="1" y2="0.5" gradientUnits="objectBoundingBox">
      <stop offset="0" stop-color="#393abd"/>
      <stop offset="0.642" stop-color="#3c51b7"/>
      <stop offset="1" stop-color="#008faa"/>
    </linearGradient>
  </defs>
  <g id="Brain_Illustration" data-name="Brain Illustration" transform="translate(-223.23 -653.006)">
    <path id="Path_29" data-name="Path 29" d="M515.217,1056.17l-2.566-1.923c.159-.212,15.863-21.191,21.035-31.532,5.318-10.637,18.193-26.138,18.739-26.792l2.465,2.054c-.131.157-13.184,15.87-18.335,26.171C531.255,1034.751,515.87,1055.3,515.217,1056.17Z" transform="translate(174.709 207.001)" fill="url(#linear-gradient)"/>
    <path id="Path_30" data-name="Path 30" d="M499.528,1063.979l-2.564-1.923c.237-.318,23.894-31.909,34.316-50.148,10.522-18.411,26.431-39.678,26.59-39.888l2.566,1.923c-.159.212-15.95,21.321-26.37,39.556C523.544,1031.909,499.769,1063.662,499.528,1063.979Z" transform="translate(165.239 192.573)" fill="url(#linear-gradient)"/>
    <path id="Path_31" data-name="Path 31" d="M491.17,1062.722l-2.415-2.11c14.341-16.391,22.233-29.477,31.371-44.63,2.587-4.29,5.262-8.725,8.2-13.424,12.189-19.505,32.084-38.1,45.415-48.1,10.677-8.009,56.758-23.418,58.713-24.069l1.015,3.041c-.475.159-47.539,15.9-57.805,23.594-13.11,9.834-32.661,28.1-44.62,47.234-2.922,4.676-5.59,9.1-8.171,13.379C513.656,1032.92,505.7,1046.121,491.17,1062.722Z" transform="translate(160.284 167.442)" fill="url(#linear-gradient-3)"/>
    <path id="Path_32" data-name="Path 32" d="M486.25,1042.561l-2.465-2.056c10.7-12.842,16.25-22.327,22.119-32.368,1.362-2.325,2.744-4.694,4.219-7.151,7.807-13.012,20.958-28.971,29.371-37.384,7.856-7.855,20.888-15.831,48.084-29.428,26.393-13.2,58.392-18.633,58.713-18.686l.526,3.164c-.314.053-31.853,5.414-57.805,18.391-26.856,13.429-39.663,21.242-47.25,28.827-8.276,8.276-21.215,23.974-28.888,36.767-1.467,2.446-2.847,4.8-4.2,7.119C502.735,1019.915,497.124,1029.511,486.25,1042.561Z" transform="translate(157.284 158.447)" fill="url(#linear-gradient-4)"/>
    <path id="Path_33" data-name="Path 33" d="M479.785,1021.238l-2.669-1.78,27.791-41.7c5.324-8.087,13.366-20.31,28.264-30.24,17.087-11.392,41.7-21.813,69.321-29.344,28.713-7.832,49.962-15.764,50.172-15.844l1.127,3c-.213.08-21.59,8.063-50.457,15.936-27.289,7.442-51.577,17.712-68.383,28.917-14.356,9.571-22.185,21.465-27.365,29.335l-1.32,2Z" transform="translate(153.258 150.502)" fill="url(#linear-gradient-4)"/>
    <path id="Path_34" data-name="Path 34" d="M473.335,1121.928l-2.895-1.384c.3-.616,30-61.718,77.815-75,10.008-2.781,18.15-4.978,25.036-6.835,26.059-7.032,33.924-9.154,56.82-19.56,27.531-12.515,44.184-25.588,49.49-38.86,7.771-19.431,2.545-38.449-15.533-56.53-2.232-2.231-4.673-4.649-7.266-7.216-25.766-25.519-64.7-64.087-64.7-83.953,0-20.98,4.89-39.172,18.681-69.517,12.72-27.982,18.392-51.463,18.392-76.133h3.207c0,25.152-5.762,49.041-18.681,77.461-13.578,29.876-18.392,47.72-18.392,68.189,0,18.529,39.908,58.059,63.756,81.674,2.595,2.572,5.039,4.994,7.274,7.228,19.071,19.072,24.536,39.256,16.245,59.988-5.706,14.263-22.435,27.54-51.142,40.589-23.136,10.515-31.058,12.654-57.311,19.738-6.881,1.855-15.017,4.051-25.015,6.828C502.688,1061.53,473.623,1121.325,473.335,1121.928Z" transform="translate(149.228 20.484)" fill="url(#linear-gradient-4)"/>
    <path id="Path_35" data-name="Path 35" d="M663.958,974.38l-3.111-.776c7.755-31.021-29.882-65.763-63.089-96.415-34.94-32.253-34.94-48.794-34.94-62.085,0-13.313,2.686-26.936,16.057-53.679,12.975-25.95,18.333-62.7,18.384-63.067l3.175.455c-.053.372-5.484,37.634-18.69,64.045-13.089,26.18-15.719,39.4-15.719,52.245,0,13.326,0,28.43,33.911,59.729C633.795,906.09,672.175,941.516,663.958,974.38Z" transform="translate(204.991 27.377)" fill="url(#linear-gradient-7)"/>
    <path id="Path_36" data-name="Path 36" d="M675.261,932.085c-.582-.582-58.463-58.492-71.6-74.255-13.235-15.883-26.919-32.3-24.2-56.814,2.441-21.967,7.091-38.234,16.049-56.152,7.842-15.685,10.485-20.969,13.094-36.619l3.162.526c-2.686,16.126-5.383,21.519-13.387,37.528-8.777,17.552-13.334,33.507-15.73,55.069-2.572,23.155,10.076,38.335,23.469,54.405,13.047,15.655,70.822,73.462,71.4,74.044Z" transform="translate(214.831 33.344)" fill="#52ddd4"/>
    <path id="Path_37" data-name="Path 37" d="M670.971,900.448l-26.491-26.481c-13.087-13.083-26.619-26.611-39.961-47.949-11.679-18.679-12.619-41.429-2.794-67.618,7.887-21.022,15.884-37.068,15.963-37.229l2.871,1.434c-.08.159-8.005,16.067-15.83,36.922-9.457,25.2-8.613,47,2.508,64.789,13.148,21.03,26.552,34.427,39.512,47.383l26.489,26.481Z" transform="translate(224.417 41.148)" fill="#53e7d0"/>
    <path id="Path_38" data-name="Path 38" d="M666.5,869.572c-1.087-.98-26.752-24.151-37.334-40.026-10.985-16.476-13.511-24.525-16.11-34.927a62.47,62.47,0,0,1,2.713-38.056,206.481,206.481,0,0,0,7.879-23.627l3.111.776a209.707,209.707,0,0,1-8.01,24.04,59.25,59.25,0,0,0-2.583,36.09c2.519,10.074,4.971,17.879,15.669,33.924,10.361,15.543,36.549,39.185,36.812,39.421Z" transform="translate(234.242 48.25)" fill="#53f0cd"/>
    <path id="Path_39" data-name="Path 39" d="M653.533,827.556a312.938,312.938,0,0,1-18.646-29.3c-10.759-18.828-5.7-47.535-5.481-48.748l3.154.573c-.053.285-5.064,28.779,5.111,46.584A309.335,309.335,0,0,0,656.1,825.632Z" transform="translate(244.355 58.256)" fill="#4ee6bd"/>
    <path id="Path_40" data-name="Path 40" d="M465.009,1111.328l-2.794-1.572c20.033-35.614,31.023-43.573,41.65-51.269,2.082-1.509,4.235-3.068,6.413-4.809,9.8-7.837,34.353-15.427,62.792-24.217,10.818-3.344,22.005-6.8,33.034-10.477,46.846-15.616,49.219-47.8,49.219-54.089,0-12.027-9.375-27.249-28.659-46.533-3.677-3.677-8.012-7.386-12.6-11.315-12.034-10.3-25.673-21.968-35.333-39.357-13.934-25.081-5.055-49.781,5.233-72.928,14.343-32.272,20.535-60.517,18.405-83.944-2.543-27.973-20.2-38.374-20.384-38.475l1.593-2.784c.786.449,19.293,11.347,21.988,40.967,2.179,23.982-4.1,52.762-18.67,85.539-9.96,22.408-18.578,46.277-5.361,70.07,9.38,16.883,22.786,28.354,34.615,38.476,4.639,3.969,9.02,7.718,12.786,11.484,19.917,19.917,29.6,35.88,29.6,48.8,0,19.334-13.506,44.5-51.411,57.132-11.062,3.687-22.267,7.151-33.1,10.5-28.126,8.692-52.417,16.2-61.736,23.657-2.239,1.79-4.423,3.373-6.537,4.9C495.4,1068.578,484.7,1076.327,465.009,1111.328Z" transform="translate(144.263 9.993)" fill="url(#linear-gradient-4)"/>
    <path id="Path_41" data-name="Path 41" d="M541.389,1120.227l-2.67-1.778,26.481-39.722c10.566-15.849,21.492-32.237,53.791-43q12.542-4.183,23.938-7.863c21-6.838,39.139-12.747,52.734-18.573,18.466-7.914,33.454-28.806,33.454-38.247,0-10.6,0-20.605-12.869-36.048-4.875-5.85-12.749-12.866-21.085-20.294-13.9-12.388-29.653-26.428-34.769-38.361-8.131-18.97-10.777-32.554-2.675-54.158,2.373-6.326,5.146-12.274,8.082-18.572,6.793-14.568,13.817-29.63,15.653-49.861,2.486-27.331-1.737-40.644-18.071-56.981-12.832-12.831-36.728-36.7-83.513-33.957-40.061,2.356-68.131,17.437-81.3,26.215-2.591,1.727-7.077,5.619-12.268,10.127-10.7,9.285-24.015,20.841-33.046,24.454-14.94,5.975-43.485,16-66.8,16-5.287,0-11.49.128-18.671.276-24.454.505-57.946,1.2-84.851-2.943l.487-3.169c26.63,4.1,59.96,3.411,84.3,2.906,7.2-.149,13.418-.277,18.737-.277,22.773,0,50.881-9.883,65.607-15.775,8.528-3.411,22.17-15.251,32.132-23.9,5.276-4.578,9.83-8.531,12.594-10.372,13.437-8.96,42.07-24.347,82.886-26.749,48.215-2.859,72.782,21.705,85.97,34.892,16.939,16.941,21.556,31.408,19,59.539-1.888,20.786-9.032,36.109-15.942,50.927-2.907,6.238-5.656,12.132-7.984,18.344-7.72,20.583-5.175,33.582,2.619,51.767,4.833,11.277,20.305,25.063,33.956,37.229,8.427,7.508,16.386,14.6,21.415,20.634,13.612,16.335,13.612,27.4,13.612,38.1,0,11.471-16.667,33.167-35.4,41.195-13.727,5.884-31.927,11.812-53,18.678q-11.361,3.7-23.915,7.851c-31.257,10.417-41.4,25.631-52.138,41.738Z" transform="translate(36.044 3.846)" fill="url(#linear-gradient-9)"/>
    <path id="Path_42" data-name="Path 42" d="M388.332,727.566H293v-3.207h95.332c51.043,0,79.773-24.623,96.939-39.336,18.492-15.85,52.988-31.858,53.334-32.017l1.344,2.912c-.342.159-34.438,15.98-52.592,31.539C471,701.475,440.563,727.566,388.332,727.566Z" transform="translate(42.116)" fill="#4b58f2"/>
    <path id="Path_43" data-name="Path 43" d="M307.862,690.243" transform="translate(51.088 22.478)" fill="none" stroke="#4b58f2" stroke-miterlimit="10" stroke-width="2"/>
    <path id="Path_44" data-name="Path 44" d="M337.2,714.881q-14.094,0-29.377-.664l.138-3.2c56.7,2.468,101.025-1.96,131.789-13.145,28.487-10.358,65.293-44.344,65.66-44.686l2.184,2.348c-1.525,1.416-37.647,34.77-66.747,45.351C415.241,710.19,380.461,714.881,337.2,714.881Z" transform="translate(51.062 0.106)" fill="#4b58f2"/>
    <path id="Path_45" data-name="Path 45" d="M326,701.583c-4.444,0-4.7-.484-4.862-1.684-.152-1.11.6-1.839,2.24-2.167l.111.547c1.588.242,10.651.311,58.345-3.222,69.874-5.175,99.2-41.4,99.487-41.762l2.521,1.982c-.3.377-30.391,37.692-101.771,42.978-22.737,1.686-39.262,2.741-49.12,3.138C329.908,701.516,327.661,701.583,326,701.583Zm-2.5-3.278.473,2.365a1.544,1.544,0,0,0-.473-2.365Z" transform="translate(59.09 0.175)" fill="#4b58f2"/>
    <path id="Path_46" data-name="Path 46" d="M345.985,684.137l-.207-3.2c80.511-5.194,110.1-25.969,110.384-26.18l1.884,2.595C456.842,658.228,427.6,678.87,345.985,684.137Z" transform="translate(73.976 1.056)" fill="#4b58f2"/>
    <path id="Path_47" data-name="Path 47" d="M509.952,1112.886l-2.13-2.4c.237-.212,23.761-21.227,34.1-39.318,1.238-2.168,2.478-4.445,3.754-6.793,9.7-17.828,21.77-40.014,52.778-49.556,9.385-2.888,18.48-5.358,27.278-7.745,23.051-6.259,42.96-11.667,54.26-21.085,7.643-6.368,20.641-19.132,21.808-33.051.532-6.349-1.523-12.281-6.11-17.635-3.794-4.424-9-10.252-15.031-17-19.65-21.989-44.105-49.359-46.216-57.8-3.9-15.61.592-36.475,13.362-62.011,16.657-33.313,20.009-75.894-10.047-95.932-31.515-21.006-55.084-34-94.03-23.617-31.015,8.27-50.844,23.23-65.321,34.154-3.908,2.948-7.6,5.733-11,8-1.692,1.127-3.212,2.361-4.822,3.669C449.5,735.384,431.593,749.922,273.154,745.2l.1-3.207c157.235,4.7,174.62-9.415,187.313-19.718,1.669-1.355,3.247-2.633,5.064-3.846,3.323-2.216,6.976-4.973,10.845-7.892,14.691-11.083,34.809-26.263,66.426-34.693,40.248-10.732,64.395,2.551,96.636,24.047,31.683,21.123,28.425,65.461,11.137,100.034-12.417,24.833-16.832,44.954-13.119,59.8,1.918,7.672,28.142,37.02,45.5,56.44,6.041,6.763,11.259,12.6,15.073,17.052,5.169,6.028,7.481,12.754,6.873,19.99-1.265,15.082-14.922,28.559-22.95,35.248-11.84,9.866-32.06,15.357-55.475,21.715-8.77,2.381-17.841,4.844-27.174,7.717-29.757,9.157-41.482,30.707-50.9,48.023-1.288,2.369-2.537,4.665-3.788,6.851C534.1,1091.315,510.935,1112.013,509.952,1112.886Z" transform="translate(30.137 11.495)" fill="url(#linear-gradient-9)"/>
    <path id="Path_48" data-name="Path 48" d="M464.566,1091.6c-4.3,0-8.758-.273-13.415-.738-26.714-2.672-65.5-38.617-67.138-40.146l2.189-2.346c.393.369,39.631,36.738,65.268,39.3,28.167,2.814,47.683-1.31,70.057-31.143,4.944-6.593,9.189-13.054,13.3-19.3,15.432-23.484,28.758-43.767,67.167-50.168,46.272-7.712,72.809-25.476,72.809-48.734,0-17.209-14.279-31.486-30.809-48.018-5.468-5.47-11.124-11.125-16.452-17.12-22.676-25.506-15.528-47.992-8.18-62.69,22.15-44.3,19.444-66.838,13.273-77.947-14.892-26.805-35.1-39.232-67.565-41.551-35.285-2.515-53.7,4.426-70.5,15.624-3.015,2.009-6.532,4.811-10.607,8.054-17.3,13.772-43.441,34.586-80.32,34.586-44.525,0-139.442-2.622-140.395-2.648l.088-3.207c.953.026,95.826,2.648,140.306,2.648,35.758,0,61.373-20.394,78.324-33.888,4.129-3.287,7.7-6.127,10.825-8.212,17.35-11.566,36.318-18.747,72.5-16.154,33.68,2.405,54.657,15.321,70.139,43.191,9.519,17.138,5.077,44.37-13.208,80.939-6.933,13.862-13.674,35.072,7.707,59.125,5.266,5.924,10.887,11.545,16.324,16.981,16.328,16.328,31.749,31.749,31.749,50.287,0,24.985-27.514,43.9-75.489,51.9-37.025,6.171-49.376,24.969-65.015,48.767-4.133,6.289-8.406,12.792-13.411,19.465C504.691,1084.318,486.724,1091.6,464.566,1091.6Z" transform="translate(24.157 20.68)" fill="url(#linear-gradient-9)"/>
    <path id="Path_49" data-name="Path 49" d="M460.19,1061.434a53.611,53.611,0,0,1-14.8-2.125c-37.142-10.611-68.354-49.216-69.666-50.855l2.506-2c.314.393,31.895,39.448,68.038,49.774,27.188,7.771,52.59-6.745,77.67-44.365q1.429-2.141,2.781-4.2c14.01-21.229,24.132-36.57,67.127-44.156,22.547-3.98,39.45-13.341,47.593-26.358,4.926-7.879,6.386-16.609,4.105-24.587-3.377-11.824-17.21-23.987-28.325-33.76-5.9-5.191-11-9.675-13.785-13.384-5.7-7.606-23.065-30.755-2.718-62.73,16.907-26.568,16.959-55.263.136-74.892-16.072-18.747-44.849-28.33-69.969-23.3-2.4.479-4.641.916-6.766,1.328-21.184,4.115-29.951,5.818-56.161,24.877-29.8,21.673-38.236,26.789-75.089,26.789-13.352,0-31.993-1.017-51.727-2.093-33.859-1.846-72.24-3.937-85.588-.6l-.778-3.109c13.815-3.454,50.788-1.438,86.541.511,19.691,1.073,38.289,2.088,51.553,2.088,37.214,0,44.838-5.545,73.2-26.175,26.784-19.48,35.758-21.223,57.438-25.432,2.117-.41,4.356-.847,6.747-1.325,26.208-5.245,56.242,4.776,73.032,24.364,17.778,20.738,17.831,50.893.136,78.7-17.172,26.983-6.753,46.644,2.577,59.085,2.583,3.443,7.568,7.824,13.336,12.9,11.431,10.048,25.655,22.557,29.294,35.287,2.531,8.862.943,18.509-4.473,27.169-6.105,9.761-19.693,22.51-49.755,27.814-41.636,7.348-50.932,21.438-65.007,42.766q-1.359,2.061-2.789,4.213C518.22,1026.224,494.744,1061.434,460.19,1061.434Z" transform="translate(19.043 28.344)" fill="url(#linear-gradient-9)"/>
    <path id="Path_50" data-name="Path 50" d="M312.144,885.2a82.6,82.6,0,0,0-33.693-2.582L278,879.444a84.142,84.142,0,0,1,35.16,2.716Z" transform="translate(33.06 136.226)" fill="#4b58f2"/>
    <path id="Path_51" data-name="Path 51" d="M353.32,890.189c-.285-.311-29.281-30.729-91-10.157l-1.014-3.042c63.8-21.271,94.076,10.7,94.373,11.03Z" transform="translate(22.986 130.803)" fill="#4b58f2"/>
    <path id="Path_52" data-name="Path 52" d="M450.879,1026.081a58.842,58.842,0,0,1-12.763-1.381c-19.725-4.384-32-17.234-48.995-35.021-4-4.182-8.129-8.509-12.7-13.078-23.4-23.4-52.293-25.819-69.926-20.777-18.591,5.311-59.707,2.814-61.449,2.705l.2-3.2c.422.026,42.307,2.571,60.366-2.59,19.359-5.528,48.719-2.76,73.075,21.595,4.6,4.594,8.74,8.934,12.749,13.129,16.6,17.377,28.6,29.932,47.372,34.1,24.709,5.493,52.425-6.692,64.454-28.341,12.125-21.824,28.033-42.8,62.047-48.47,26.3-4.383,42.837-13,49.142-25.617,4.984-9.965,7.657-22.571-10.292-40.519-4.267-4.266-8.483-8.049-12.2-11.388-12.877-11.554-22.182-19.9-20.026-34.992,1.24-8.679,5.329-19.645,9.283-30.248,4.54-12.18,9.237-24.773,9.237-33.08,0-15.151-4.729-25.25-18.067-38.589-13.031-13.028-44.365-15.292-56.811-12.8-12.25,2.45-31,7.556-52.316,23.543C441,757.76,424.953,767.871,377.467,765.217c-8.137-.451-16.471-.988-24.533-1.507-40.438-2.6-78.632-5.064-104.747,1.462l-.778-3.109c26.6-6.65,65.036-4.174,105.732-1.552,8.053.518,16.38,1.054,24.5,1.506,46.37,2.572,62.012-7.258,83.691-23.516,21.835-16.378,41.053-21.611,53.61-24.122,13.023-2.608,45.892-.136,59.707,13.679,13.856,13.856,19.006,24.929,19.006,40.856,0,8.884-4.586,21.181-9.441,34.2-3.894,10.446-7.922,21.245-9.112,29.582-1.913,13.39,6.4,20.854,18.994,32.15,3.751,3.366,8,7.18,12.329,11.508,19.5,19.5,16.067,33.875,10.894,44.221-6.791,13.584-24.114,22.785-51.485,27.347-32.671,5.446-48.034,25.742-59.77,46.863C495.425,1013.945,473.155,1026.081,450.879,1026.081Z" transform="translate(13.171 36.493)" fill="url(#linear-gradient-9)"/>
    <path id="Path_53" data-name="Path 53" d="M453.579,996.949c-21.41,0-36.275-14.867-57.343-35.936-24.335-24.334-37.181-31.1-70.123-26.031-36.028,5.545-62.052,5.047-96.338-13.413l1.522-2.826c33.489,18.035,58.989,18.506,94.328,13.07,34.068-5.242,48.074,2.13,72.878,26.932,23.556,23.554,39.124,39.124,64.755,33.988,20.626-4.125,29.688-18.275,39.281-33.255,2.349-3.667,4.779-7.462,7.4-11.124,12.462-17.448,34.236-23.524,51.732-28.405,1.612-.449,3.2-.89,4.742-1.334,19.6-5.6,27.966-13.849,27.966-27.588,0-11.652-5.831-17.071-17.446-27.871-3.313-3.079-7.066-6.567-11.213-10.715-16.506-16.506-10.939-29.159-7.252-37.53.612-1.389,1.19-2.7,1.568-3.833.335-1.006.994-2.5,1.828-4.381,6.041-13.634,22.084-49.851-11.655-67.844-28.911-15.425-56.047-12.019-82.958,10.409-17.408,14.505-36.8,21.556-59.285,21.556-10.64,0-23.077-.513-37.476-1.107-17.491-.722-37.315-1.541-57.858-1.541-36.332,0-70.583,13-70.925,13.132l-1.151-2.994c.346-.133,35.131-13.346,72.076-13.346,20.608,0,40.468.819,57.99,1.543,14.365.593,26.771,1.105,37.344,1.105,21.7,0,40.426-6.808,57.231-20.814,28.027-23.354,56.327-26.879,86.522-10.777,36.371,19.4,19.449,57.6,13.081,71.975-.8,1.807-1.434,3.234-1.722,4.1-.423,1.273-1.03,2.652-1.674,4.112-3.533,8.025-8.37,19.013,6.585,33.97,4.105,4.105,7.837,7.574,11.128,10.634,11.519,10.708,18.471,17.172,18.471,30.221,0,15.433-9.061,24.606-30.293,30.673-1.552.443-3.143.887-4.761,1.339-17.9,4.992-38.18,10.655-49.984,27.179-2.571,3.6-4.976,7.356-7.3,10.99-9.973,15.571-19.391,30.279-41.353,34.671A52.506,52.506,0,0,1,453.579,996.949Z" transform="translate(3.951 44.138)" fill="url(#linear-gradient-9)"/>
    <path id="Path_54" data-name="Path 54" d="M448.329,963.256c-8.833,0-17.608-2.787-29.515-13-4.327-3.706-8.724-7.912-12.977-11.981-14.062-13.447-28.6-27.354-44.238-27.354-7.588,0-16.16,1.025-25.237,2.112-16.158,1.936-32.867,3.934-46.653.488-15.907-3.977-44.415-13.835-56.615-35.186-9.8-17.158-17.27-42.433,2.834-65.406l1.1-1.256c17.765-20.326,29.5-33.754,82.043-39.007,10.759-1.076,26.43-.515,43.024.077,32.665,1.169,69.687,2.49,83.284-7.709l3.257-2.45c19.916-15,35.656-26.842,58.96-21.665,13.3,2.957,29.518,7.985,36.93,20.73,4.8,8.249,5.247,18.888,1.328,31.622-10.618,34.511-12.786,43.945,2,53.8,5.323,3.549,22.695,16.3,22.695,31.361,0,7.237-4.073,13.622-12.1,18.974-12.4,8.264-23.264,10.2-32.854,11.914-8.778,1.567-16.36,2.918-22.514,9.072-4.8,4.8-9,11.575-13.057,18.12-6.984,11.267-14.205,22.918-24.887,24.7l-2.022.34A89.365,89.365,0,0,1,448.329,963.256ZM361.6,907.719c16.92,0,31.935,14.357,46.454,28.243,4.222,4.038,8.588,8.212,12.847,11.864,17.169,14.715,26.92,13.066,41.68,10.57l2.032-.342c9.248-1.54,15.777-12.074,22.687-23.224,4.153-6.7,8.448-13.63,13.516-18.7,6.865-6.865,14.908-8.3,24.22-9.962,9.279-1.655,19.8-3.531,31.635-11.424,7.082-4.721,10.674-10.207,10.674-16.306,0-10.7-10.985-21.838-21.266-28.692-17.39-11.593-13.551-24.069-3.292-57.416,3.645-11.843,3.3-21.624-1.033-29.068-6.788-11.671-22.193-16.4-34.855-19.21-21.869-4.869-37.08,6.593-56.335,21.094L447.3,767.6c-14.5,10.879-52.127,9.534-85.321,8.349-16.481-.587-32.049-1.147-42.591-.091l-.16-1.6.16,1.6c-51.28,5.127-62.071,17.475-79.948,37.928l-1.1,1.256c-18.859,21.553-11.748,45.451-2.462,61.7,11.609,20.315,39.2,29.812,54.607,33.665,13.217,3.3,29.626,1.339,45.494-.56C345.155,908.754,353.82,907.719,361.6,907.719Z" transform="translate(0 52.325)" fill="url(#linear-gradient-9)"/>
    <path id="Path_55" data-name="Path 55" d="M430.327,932.145c-12.473,0-26.589-8.474-40.891-24.565-18.851-21.208-37.306-18.708-56.845-16.065-1.77.241-3.542.481-5.313.7-34.167,4.279-57.855-3.09-70.386-21.885-16.187-24.282-13.746-32.477-2.779-57.154,10.937-24.6,43.63-32.716,62.146-35.36,18.411-2.63,89.508-.136,92.941-.016,8.131-.008,12.813-3.239,23.062-10.31,2.306-1.591,4.874-3.361,7.8-5.31,18.634-12.422,35.572-9.821,46.5-5.452,12.422,4.97,19.545,15.164,19.545,27.972,0,8.1-4.288,18.737-7.736,27.288-1.209,3-2.253,5.587-2.94,7.645-2.333,7,11.091,20.429,15.5,24.84,5.258,5.257,14.059,14.059,8.246,25.686-4.893,9.784-9.891,11.15-23.248,14.8-2.067.565-4.349,1.187-6.876,1.91-13.625,3.892-15.121,5.973-23.421,17.523-2.577,3.586-5.784,8.049-10.18,13.7-7.013,9.017-15.167,13.74-24.236,14.037C430.924,932.14,430.625,932.145,430.327,932.145ZM351.464,886.6c13.368,0,26.911,3.706,40.369,18.846,13.992,15.741,27.57,23.931,39.281,23.474,8.071-.265,15.408-4.57,21.81-12.8,4.357-5.6,7.544-10.037,10.106-13.6,8.442-11.744,10.446-14.534,25.145-18.734,2.54-.725,4.832-1.352,6.91-1.921,13.038-3.563,16.973-4.639,21.226-13.142,4.779-9.559-2.4-16.739-7.645-21.983-5.757-5.757-19.239-19.237-16.275-28.123.715-2.151,1.777-4.78,3.005-7.829,3.344-8.293,7.5-18.612,7.5-26.088,0-11.428-6.389-20.538-17.528-24.993-10.215-4.084-26.056-6.508-43.534,5.141-2.907,1.939-5.46,3.7-7.755,5.282-10.5,7.241-15.764,10.876-24.911,10.876l-.058,0c-.738-.026-74.215-2.612-92.4-.014-17.86,2.551-49.36,10.294-59.67,33.489-10.631,23.92-12.78,31.125,2.518,54.072,11.8,17.7,34.448,24.59,67.32,20.482,1.759-.221,3.52-.459,5.281-.7A143.9,143.9,0,0,1,351.464,886.6Z" transform="translate(13.334 60.429)" fill="url(#linear-gradient-16)"/>
    <path id="Path_56" data-name="Path 56" d="M406.382,900.918A36.683,36.683,0,0,1,380.8,890.156c-12.443-12.443-20.224-18.073-36.2-20.738-5.757-.957-11.193-.093-16.955.818-9.46,1.5-20.182,3.2-33.813-3.613-20.276-10.137-27.665-23.306-24.7-44.031,2.721-19.051,31.97-32.905,46.291-35.769,13.163-2.633,48.486-.188,50.685-.032,36.355-.006,41.512-5.159,51.772-15.419,5.4-5.4,13.6-7.813,21.946-6.459a27.338,27.338,0,0,1,20.346,14.821c5.988,11.976,1.948,19.966-1.613,27.012a41.567,41.567,0,0,0-3.562,8.519c-1.8,7.21,1.734,10.031,6.209,13.6a46.506,46.506,0,0,1,3.961,3.414c4.465,4.465,11.485,13.368,8.331,22.828-2.1,6.317-8.382,8.175-16.332,10.529-3.334.986-7.109,2.106-11.075,3.692-8.687,3.474-11.226,7.972-14.739,14.194a79.459,79.459,0,0,1-5.759,9.112c-3.576,4.771-9.572,7.683-16.88,8.2Q407.548,900.916,406.382,900.918Zm-67.074-35.129a35.1,35.1,0,0,1,5.818.467c16.854,2.81,24.99,8.677,37.946,21.633a33.246,33.246,0,0,0,25.41,9.747c6.275-.446,11.577-2.97,14.543-6.926a76.045,76.045,0,0,0,5.533-8.766c3.546-6.28,6.607-11.7,16.341-15.6,4.1-1.639,7.954-2.781,11.352-3.786,7.6-2.252,12.626-3.74,14.2-8.47,2.608-7.823-3.616-15.6-7.558-19.545a44.454,44.454,0,0,0-3.693-3.174c-4.511-3.6-9.623-7.677-7.319-16.885a44.464,44.464,0,0,1,3.809-9.189c3.536-6.992,6.875-13.6,1.605-24.132a24.146,24.146,0,0,0-17.988-13.087c-7.333-1.19-14.492.888-19.165,5.56C409.254,784.53,403.785,790,366.048,790l-.114,0c-.37-.026-37.011-2.6-49.886-.026-14.415,2.882-41.363,16.4-43.746,33.078-2.768,19.377,3.884,31.172,22.963,40.709,12.71,6.355,22.451,4.811,31.876,3.316A77.057,77.057,0,0,1,339.307,865.789Z" transform="translate(27.327 67.328)" fill="url(#linear-gradient-16)"/>
    <path id="Path_57" data-name="Path 57" d="M379.342,868.41c-6.639,0-9.66-3.757-13.158-8.1-2.739-3.406-5.844-7.266-11.5-10.659-7.892-4.734-13.732-3.441-21.123-1.806a66.653,66.653,0,0,1-15.126,2.035c-17.347,0-28.085-14.579-28.085-28.086,0-12.659,9.021-21.819,27.578-28,16.027-5.343,41.942-2.832,43.037-2.723l.154.023c16.473,3.292,20.985.361,27.235-3.693a48.538,48.538,0,0,1,14.382-6.87c10.911-3.111,15.887,1,17.879,3.73,3.361,4.6,3.268,12.015-.216,17.239-4.874,7.309-4.928,11.785-.2,16.514,5.61,5.61,11.412,11.41,8.246,17.74-2.978,5.956-3.618,6.116-14.287,8.783-6.4,1.6-8.422,5.143-10.765,9.243a27.936,27.936,0,0,1-4.38,6.222C393.587,865.422,390.6,868.41,379.342,868.41Zm-35.771-25.282a23.929,23.929,0,0,1,12.762,3.767c6.147,3.688,9.587,7.964,12.35,11.4,3.345,4.158,5.557,6.907,10.659,6.907,9.927,0,12.27-2.343,17.4-7.475a25.1,25.1,0,0,0,3.863-5.547c2.364-4.139,5.047-8.831,12.771-10.762,9.879-2.47,9.879-2.47,12.2-7.106,2.131-4.264-2.617-9.012-7.645-14.038-5.849-5.85-5.908-12-.2-20.562,2.393-3.589,3.159-9.646.3-13.57-2.627-3.6-7.609-4.474-14.409-2.534a45.739,45.739,0,0,0-13.514,6.474c-6.615,4.295-11.841,7.693-29.531,4.165-1.564-.146-26.662-2.409-41.628,2.58-17.319,5.773-25.386,13.7-25.386,24.961,0,11.965,9.511,24.879,24.877,24.879a63.057,63.057,0,0,0,14.431-1.96A49.555,49.555,0,0,1,343.571,843.128Z" transform="translate(40.516 76.303)" fill="url(#linear-gradient-16)"/>
    <path id="Path_58" data-name="Path 58" d="M359.445,835.163c-3.053,0-6.11-1.485-9.078-4.455-4.827-4.827-6.929-4.827-14.755-4.827-7.991,0-17.045,0-20.058-9.04-3.138-9.415,1.062-12.664,11.4-17.831,10.716-5.359,21.24-.662,22.509-.056,4.035,1.326,5.3.38,7.815-1.488a23.054,23.054,0,0,1,6.961-3.839c3.7-1.236,6.74-1.026,9.027.624,2.372,1.706,3.676,4.848,3.676,8.841,0,4.633,0,4.633,4.827,9.46,2.988,2.988,4.067,6.474,2.885,9.325a6.922,6.922,0,0,1-6.666,4c-4.633,0-4.633,0-9.458,4.827C365.555,833.678,362.5,835.163,359.445,835.163Zm-21.6-35.455a20.962,20.962,0,0,0-9.46,2.171c-10.526,5.262-11.989,7.348-9.79,13.947,2.284,6.848,9.112,6.848,17.018,6.848,7.962,0,11.256,0,17.023,5.767,4.647,4.646,8.974,4.646,13.621,0,5.549-5.55,5.988-5.767,11.726-5.767a3.746,3.746,0,0,0,3.7-2.024c.669-1.612-.151-3.793-2.189-5.831-5.55-5.55-5.767-5.988-5.767-11.728,0-2.891-.853-5.167-2.343-6.24-1.4-1.01-3.469-1.071-6.137-.183a20.021,20.021,0,0,0-6.06,3.368c-2.644,1.972-5.137,3.834-10.844,1.927l-.207-.083A25.729,25.729,0,0,0,337.844,799.708Z" transform="translate(55.116 84.407)" fill="#4b58f2"/>
  </g>
</svg>
