<svg xmlns="http://www.w3.org/2000/svg" width="158.335" height="43.11" viewBox="0 0 158.335 43.11"><g transform="translate(-11 -9)"><path d="M27.959,27.385a.682.682,0,0,0-.634.634v6.5a.682.682,0,0,0,.634.634h5.23v8.083a13.061,13.061,0,0,1-4.438.475c-3.8,0-9.034-1.426-9.034-13.155S25.264,17.4,30.495,17.4a23.8,23.8,0,0,1,7.766,1.109c.317.158.792-.317.792-.634l1.426-6.34c0-.158,0-.317-.317-.475C39.687,10.743,36.676,9,28.91,9,19.876,9,11,12.645,11,31.031c0,18.227,10.461,20.921,19.178,20.921A22.3,22.3,0,0,0,41.906,48.94a.582.582,0,0,0,.158-.475V28.019a.682.682,0,0,0-.634-.634" transform="translate(0 0)" fill="#fff"/><path d="M480.163,19.634a.682.682,0,0,0-.634-.634H472.08a.682.682,0,0,0-.634.634V34.057H459.717V19.634a.682.682,0,0,0-.634-.634h-7.449a.682.682,0,0,0-.634.634V58.782a.682.682,0,0,0,.634.634h7.449a.682.682,0,0,0,.634-.634v-16.8h11.729v16.8a.682.682,0,0,0,.634.634h7.449a.682.682,0,0,0,.634-.634V19.634" transform="translate(-370.263 -8.415)" fill="#fff"/><ellipse cx="5" cy="4.5" rx="5" ry="4.5" transform="translate(46 12)" fill="#fff"/><path d="M241.717,100.634a.682.682,0,0,0-.634-.634h-7.449a.682.682,0,0,0-.634.634v25.993c0,.792.475.951,1.109.951h6.815c.792,0,.951-.317.951-.951" transform="translate(-186.814 -76.577)" fill="#fff"/><path d="M676.276,101a.682.682,0,0,0-.634.634v19.178a8.319,8.319,0,0,1-4.6,1.426c-2.694,0-3.328-1.268-3.328-3.8v-16.8a.682.682,0,0,0-.634-.634h-7.449a.682.682,0,0,0-.634.634V119.7c0,7.766,4.279,9.668,10.3,9.668a17.547,17.547,0,0,0,8.876-2.694,6.978,6.978,0,0,0,.317,1.585c.159.158.317.317.476.317h4.755a.682.682,0,0,0,.634-.634v-26.31a.682.682,0,0,0-.634-.634" transform="translate(-545.296 -77.419)" fill="#fff"/><path d="M857,53.393a6.662,6.662,0,0,1-4.6-1.426V39.446a9.313,9.313,0,0,1,3.8-1.268c2.694-.317,5.23.634,5.23,6.974,0,6.815-.792,8.242-4.6,8.242Zm-4.279-20.446V19.634a.682.682,0,0,0-.634-.634h-7.449a.682.682,0,0,0-.634.634V58.782a.682.682,0,0,0,.634.634h5.23c.159,0,.476-.158.476-.317a8.181,8.181,0,0,0,.317-1.743s3.011,3.011,8.876,3.011c6.815,0,10.778-3.487,10.778-15.532S864.129,31.2,859.849,31.2a13.858,13.858,0,0,0-7.132,1.9Z" transform="translate(-700.975 -8.415)" fill="#fff"/><path d="M318.313,57.925V50.475a.42.42,0,0,0-.475-.475h-7.766c-.317,0-.475.158-.475.634V58.4s-3.8.951-4.121.951c-.317.158-.475.317-.475.634V64.9a.682.682,0,0,0,.634.634H309.6V77.1c0,8.717,6.023,9.51,10.144,9.51a14.665,14.665,0,0,0,4.438-.792.823.823,0,0,0,.317-.634v-5.23a.682.682,0,0,0-.634-.634c-.317,0-1.109.158-2.06.158-2.694,0-3.645-1.268-3.645-3.011V65.532H323.7a.682.682,0,0,0,.634-.634v-6.34a.682.682,0,0,0-.634-.634" transform="translate(-247.403 -34.502)" fill="#fff"/></g></svg>