<svg xmlns="http://www.w3.org/2000/svg" width="158.335" height="31.921" viewBox="0 0 158.335 31.921"><path d="M261.919.033H289.5v5.09h-10.94V31.9h-5.471V5.123H261.919Z" transform="translate(-156.663 -0.02)" fill="#fff"/><path d="M108,.033v5.09H85.9v8.189h17.778V18.4H85.9v8.41H108V31.9H80.427V5.123h0V.033Z" transform="translate(-48.105 -0.02)" fill="#fff"/><path d="M172.665.066h-7.159l25.641,31.87h7.18L185.5,16.012,198.307.09,191.147.1l-9.227,11.459Z" transform="translate(-98.995 -0.04)" fill="#fff"/><path d="M179.98,50.08,176.4,45.623,165.455,59.21h7.179Z" transform="translate(-98.964 -27.289)" fill="#fff"/><path d="M32.514,31.884,6.838,0H0V31.87H5.47V6.812L25.642,31.884Z" fill="#fff" fill-rule="evenodd"/><path d="M331.449,74.625a1.418,1.418,0,0,1-1.027-.416A1.339,1.339,0,0,1,330,73.2a1.324,1.324,0,0,1,.423-1,1.418,1.418,0,0,1,1.027-.416,1.4,1.4,0,0,1,1.008.416,1.352,1.352,0,0,1,.438,1,1.382,1.382,0,0,1-.2.719,1.477,1.477,0,0,1-.53.515A1.367,1.367,0,0,1,331.449,74.625Z" transform="translate(-197.384 -42.936)" fill="#fff"/><path d="M347.754,45.445h2.424v9.339a4.315,4.315,0,0,1-.552,2.21,3.674,3.674,0,0,1-1.527,1.421,4.972,4.972,0,0,1-2.272.5,5.22,5.22,0,0,1-2.127-.42,3.424,3.424,0,0,1-1.5-1.242,3.572,3.572,0,0,1-.553-2.049h2.428a1.811,1.811,0,0,0,.241.928,1.549,1.549,0,0,0,.645.6,2.112,2.112,0,0,0,.956.208,1.885,1.885,0,0,0,.993-.245,1.553,1.553,0,0,0,.623-.723,2.974,2.974,0,0,0,.219-1.18Z" transform="translate(-204.352 -27.182)" fill="#fff"/><path d="M376.067,48.831a1.761,1.761,0,0,0-.771-1.322,3.027,3.027,0,0,0-1.768-.475,3.43,3.43,0,0,0-1.308.226,1.967,1.967,0,0,0-.838.617,1.508,1.508,0,0,0-.3.888,1.3,1.3,0,0,0,.2.72,1.613,1.613,0,0,0,.53.515,3.539,3.539,0,0,0,.741.354q.411.142.823.241l1.264.31a8.737,8.737,0,0,1,1.472.475,5.211,5.211,0,0,1,1.271.752,3.37,3.37,0,0,1,.89,1.1,3.259,3.259,0,0,1,.33,1.5,3.546,3.546,0,0,1-.6,2.053,3.982,3.982,0,0,1-1.749,1.381,6.933,6.933,0,0,1-2.761.5,7.035,7.035,0,0,1-2.724-.482,3.865,3.865,0,0,1-2.506-3.641h2.4a2.015,2.015,0,0,0,.434,1.154,2.335,2.335,0,0,0,1,.687,4.008,4.008,0,0,0,1.379.226,3.848,3.848,0,0,0,1.4-.237,2.19,2.19,0,0,0,.942-.661,1.547,1.547,0,0,0,.348-.993,1.278,1.278,0,0,0-.308-.862,2.362,2.362,0,0,0-.845-.57,8.682,8.682,0,0,0-1.267-.413l-1.534-.387a6.153,6.153,0,0,1-2.628-1.282,2.9,2.9,0,0,1-.964-2.286,3.37,3.37,0,0,1,.649-2.056,4.217,4.217,0,0,1,1.764-1.37A6.244,6.244,0,0,1,373.562,45a6.023,6.023,0,0,1,2.517.489,4.1,4.1,0,0,1,1.7,1.355,3.428,3.428,0,0,1,.638,1.987Z" transform="translate(-220.268 -26.916)" fill="#fff"/></svg>